<?xml version="1.0" encoding="UTF-8" standalone="no"?>
<!-- Created with Inkscape (http://www.inkscape.org/) -->

<svg
   xmlns:dc="http://purl.org/dc/elements/1.1/"
   xmlns:cc="http://creativecommons.org/ns#"
   xmlns:rdf="http://www.w3.org/1999/02/22-rdf-syntax-ns#"
   xmlns:svg="http://www.w3.org/2000/svg"
   xmlns="http://www.w3.org/2000/svg"
   xmlns:sodipodi="http://sodipodi.sourceforge.net/DTD/sodipodi-0.dtd"
   xmlns:inkscape="http://www.inkscape.org/namespaces/inkscape"
   width="919.35876"
   height="600.10071"
   id="svg3074"
   version="1.1"
   inkscape:version="0.48.5 r10040"
   sodipodi:docname="logo-plain.svg"
   inkscape:export-filename="/Users/miladiir/Desktop/logo.png"
   inkscape:export-xdpi="90"
   inkscape:export-ydpi="90">
  <defs
     id="defs3076" />
  <sodipodi:namedview
     id="base"
     pagecolor="#ffffff"
     bordercolor="#000000"
     borderopacity="0"
     inkscape:pageopacity="0.0"
     inkscape:pageshadow="0"
     inkscape:zoom="0.49497475"
     inkscape:cx="458.78482"
     inkscape:cy="192.67617"
     inkscape:document-units="px"
     inkscape:current-layer="layer1"
     showgrid="false"
     inkscape:connector-spacing="13"
     inkscape:window-width="1680"
     inkscape:window-height="958"
     inkscape:window-x="0"
     inkscape:window-y="0"
     inkscape:window-maximized="1"
     fit-margin-top="0"
     fit-margin-left="0"
     fit-margin-right="0"
     fit-margin-bottom="0"
     inkscape:showpageshadow="true"
     borderlayer="true" />
  <metadata
     id="metadata3079">
    <rdf:RDF>
      <cc:Work
         rdf:about="">
        <dc:format>image/svg+xml</dc:format>
        <dc:type
           rdf:resource="http://purl.org/dc/dcmitype/StillImage" />
        <dc:title></dc:title>
      </cc:Work>
    </rdf:RDF>
  </metadata>
  <g
     inkscape:label="Layer 1"
     inkscape:groupmode="layer"
     id="layer1"
     transform="translate(-282.85789,-398.114)">
    <path
       sodipodi:type="arc"
       style="fill:#03a9f4;fill-opacity:1;stroke:#03a9f4;stroke-opacity:0"
       id="path5637"
       sodipodi:cx="-245"
       sodipodi:cy="929.50507"
       sodipodi:rx="9.2857141"
       sodipodi:ry="5.7142859"
       d="m -235.71429,929.50507 c 0,3.15591 -4.15735,5.71428 -9.28571,5.71428 -5.12836,0 -9.28571,-2.55837 -9.28571,-5.71428 0,-3.15592 4.15735,-5.71429 9.28571,-5.71429 5.10109,0 9.24707,2.53224 9.28545,5.67129"
       sodipodi:start="0"
       sodipodi:end="6.2756608"
       sodipodi:open="true"
       transform="matrix(5.0387523,0,0,8.1879721,1566.6375,-6912.6159)" />
    <path
       style="fill:none;stroke:#03a9f4;stroke-width:15;stroke-linecap:butt;stroke-linejoin:miter;stroke-miterlimit:4;stroke-opacity:1;stroke-dasharray:none"
       d="M 367.1872,662.47963 573.57093,451.63252"
       id="path3221"
       inkscape:connector-type="polyline"
       inkscape:connector-curvature="4"
       inkscape:export-filename="/Users/miladiir/Desktop/image4125.png"
       inkscape:export-xdpi="90"
       inkscape:export-ydpi="90" />
    <path
       style="fill:none;stroke:#03a9f4;stroke-width:15;stroke-linecap:butt;stroke-linejoin:miter;stroke-miterlimit:4;stroke-opacity:1;stroke-dasharray:none;display:inline"
       d="M 367.49865,733.50091 582.14332,948.14564"
       id="path3223"
       inkscape:connector-type="polyline"
       inkscape:connector-curvature="0"
       inkscape:export-filename="/Users/miladiir/Desktop/image4125.png"
       inkscape:export-xdpi="90"
       inkscape:export-ydpi="90" />
    <path
       style="fill:none;stroke:#03a9f4;stroke-width:15;stroke-linecap:butt;stroke-linejoin:miter;stroke-miterlimit:4;stroke-opacity:1;stroke-dasharray:none;display:inline"
       d="m 832.14332,698.14561 -250,250.00003"
       id="path3225"
       inkscape:connector-type="polyline"
       inkscape:connector-curvature="0"
       inkscape:export-filename="/Users/miladiir/Desktop/image4125.png"
       inkscape:export-xdpi="90"
       inkscape:export-ydpi="90" />
    <path
       style="fill:none;stroke:#03a9f4;stroke-width:15;stroke-linecap:butt;stroke-linejoin:miter;stroke-miterlimit:4;stroke-opacity:1;stroke-dasharray:none"
       d="m 832.14332,698.14561 349.99998,0"
       id="path3229"
       inkscape:connector-type="polyline"
       inkscape:connector-curvature="0"
       inkscape:export-filename="/Users/miladiir/Desktop/image4125.png"
       inkscape:export-xdpi="90"
       inkscape:export-ydpi="90" />
    <path
       sodipodi:type="arc"
       style="fill:#03a9f4;fill-opacity:1;stroke:#03a9f4;stroke-opacity:0"
       id="path5629"
       sodipodi:cx="-31.428572"
       sodipodi:cy="1190.2194"
       sodipodi:rx="97.14286"
       sodipodi:ry="65"
       d="m 65.714289,1190.2194 c 0,35.8985 -43.49234,65 -97.142861,65 -53.65052,0 -97.142858,-29.1015 -97.142858,-65 0,-35.8985 43.492338,-65 97.142858,-65 53.365288,0 96.738567,28.8042 97.140111,64.5109"
       sodipodi:start="0"
       sodipodi:end="6.2756608"
       sodipodi:open="true"
       transform="matrix(0.51148745,0,0,0.76442082,598.21864,38.317126)" />
    <path
       sodipodi:type="arc"
       style="fill:#03a9f4;fill-opacity:1;stroke:#03a9f4;stroke-opacity:0"
       id="path5631"
       sodipodi:cx="166.42857"
       sodipodi:cy="823.79077"
       sodipodi:rx="30.714285"
       sodipodi:ry="28.571428"
       d="m 197.14286,823.79077 c 0,15.77957 -13.75126,28.57143 -30.71429,28.57143 -16.96303,0 -30.71428,-12.79186 -30.71428,-28.57143 0,-15.77956 13.75125,-28.57143 30.71428,-28.57143 16.87285,0 30.58646,12.66122 30.71342,28.35645"
       sodipodi:start="0"
       sodipodi:end="6.2756608"
       sodipodi:open="true"
       transform="matrix(1.6008865,0,0,1.7209529,315.71007,-969.55954)" />
    <path
       sodipodi:type="arc"
       style="fill:#03a9f4;fill-opacity:1;stroke:#03a9f4;stroke-opacity:0"
       id="path5633"
       sodipodi:cx="410.71429"
       sodipodi:cy="999.50507"
       sodipodi:rx="36.42857"
       sodipodi:ry="22.857143"
       d="m 447.14286,999.50507 c 0,12.62363 -16.30962,22.85713 -36.42857,22.85713 -20.11894,0 -36.42857,-10.2335 -36.42857,-22.85713 0,-12.62366 16.30963,-22.85715 36.42857,-22.85715 20.01199,0 36.27696,10.12898 36.42754,22.68516"
       sodipodi:start="0"
       sodipodi:end="6.2756608"
       sodipodi:open="true"
       transform="matrix(1.3491712,0,0,2.1502415,278.01943,-1451.0317)" />
    <path
       sodipodi:type="arc"
       style="fill:#03a9f4;fill-opacity:1;stroke:#03a9f4;stroke-opacity:0"
       id="path5635"
       sodipodi:cx="302.85715"
       sodipodi:cy="1151.6479"
       sodipodi:rx="48.57143"
       sodipodi:ry="63.57143"
       d="m 351.42858,1151.6479 c 0,35.1096 -21.74617,63.5715 -48.57143,63.5715 -26.82526,0 -48.57143,-28.4619 -48.57143,-63.5715 0,-35.1095 21.74617,-63.5714 48.57143,-63.5714 26.68264,0 48.36928,28.1712 48.57005,63.0931"
       sodipodi:start="0"
       sodipodi:end="6.2756608"
       sodipodi:open="true"
       transform="matrix(1.0202317,0,0,0.77950283,843.15888,-199.56724)" />
  </g>
</svg>
